<?xml version="1.0" encoding="UTF-8" standalone="no"?>
<!DOCTYPE svg PUBLIC "-//W3C//DTD SVG 1.1//EN"
 "http://www.w3.org/Graphics/SVG/1.1/DTD/svg11.dtd">
<!-- Generated by graphviz version 2.40.1 (20161225.0304)
 -->
<!-- Title: models_diagram Pages: 1 -->
<svg width="381pt" height="248pt"
 viewBox="0.00 0.00 381.00 248.00" xmlns="http://www.w3.org/2000/svg" xmlns:xlink="http://www.w3.org/1999/xlink">
<g id="graph0" class="graph" transform="scale(1 1) rotate(0) translate(36 212)">
<title>models_diagram</title>
<polygon fill="#ffffff" stroke="transparent" points="-36,36 -36,-212 345,-212 345,36 -36,36"/>
<!-- Entity -->
<g id="node1" class="node">
<title>Entity</title>
<polygon fill="#add8e6" stroke="transparent" points="0,-121 0,-143 94,-143 94,-121 0,-121"/>
<polygon fill="none" stroke="#000000" points="0,-121 0,-143 94,-143 94,-121 0,-121"/>
<text text-anchor="start" x="34.777" y="-129" font-family="Times,serif" font-size="10.00" fill="#000000">Entity</text>
<polygon fill="none" stroke="#000000" points="0,-99 0,-121 94,-121 94,-99 0,-99"/>
<text text-anchor="start" x="5" y="-107" font-family="Times,serif" font-size="10.00" fill="#000000">id: UUID</text>
<polygon fill="none" stroke="#000000" points="0,-77 0,-99 94,-99 94,-77 0,-77"/>
<text text-anchor="start" x="4.6465" y="-85" font-family="Times,serif" font-size="10.00" fill="#000000">entityType: STRING</text>
<polygon fill="none" stroke="#000000" points="0,-55 0,-77 94,-77 94,-55 0,-55"/>
<text text-anchor="start" x="5" y="-63" font-family="Times,serif" font-size="10.00" fill="#000000">createdAt: DATE</text>
<polygon fill="none" stroke="#000000" points="0,-33 0,-55 94,-55 94,-33 0,-33"/>
<text text-anchor="start" x="5" y="-41" font-family="Times,serif" font-size="10.00" fill="#000000">updatedAt: DATE</text>
</g>
<!-- Profile -->
<g id="node2" class="node">
<title>Profile</title>
<polygon fill="#add8e6" stroke="transparent" points="215,-154 215,-176 309,-176 309,-154 215,-154"/>
<polygon fill="none" stroke="#000000" points="215,-154 215,-176 309,-176 309,-154 215,-154"/>
<text text-anchor="start" x="248.393" y="-162" font-family="Times,serif" font-size="10.00" fill="#000000">Profile</text>
<polygon fill="none" stroke="#000000" points="215,-132 215,-154 309,-154 309,-132 215,-132"/>
<text text-anchor="start" x="220" y="-140" font-family="Times,serif" font-size="10.00" fill="#000000">id: UUID</text>
<polygon fill="none" stroke="#000000" points="215,-110 215,-132 309,-132 309,-110 215,-110"/>
<text text-anchor="start" x="220" y="-118" font-family="Times,serif" font-size="10.00" fill="#000000">url: STRING</text>
<polygon fill="none" stroke="#000000" points="215,-88 215,-110 309,-110 309,-88 215,-88"/>
<text text-anchor="start" x="219.6465" y="-96" font-family="Times,serif" font-size="10.00" fill="#000000">entityType: STRING</text>
<polygon fill="none" stroke="#000000" points="215,-66 215,-88 309,-88 309,-66 215,-66"/>
<text text-anchor="start" x="220" y="-74" font-family="Times,serif" font-size="10.00" fill="#000000">linksTo: STRING</text>
<polygon fill="none" stroke="#000000" points="215,-44 215,-66 309,-66 309,-44 215,-44"/>
<text text-anchor="start" x="220" y="-52" font-family="Times,serif" font-size="10.00" fill="#000000">createdAt: DATE</text>
<polygon fill="none" stroke="#000000" points="215,-22 215,-44 309,-44 309,-22 215,-22"/>
<text text-anchor="start" x="220" y="-30" font-family="Times,serif" font-size="10.00" fill="#000000">updatedAt: DATE</text>
<polygon fill="none" stroke="#000000" points="215,0 215,-22 309,-22 309,0 215,0"/>
<text text-anchor="start" x="220" y="-8" font-family="Times,serif" font-size="10.00" fill="#000000">entityId: UUID</text>
</g>
<!-- Profile&#45;&gt;Entity -->
<g id="edge1" class="edge">
<title>Profile&#45;&gt;Entity</title>
<path fill="none" stroke="#000000" stroke-width=".75" d="M208.3851,-88C173.2644,-88 127.7938,-88 94.0726,-88"/>
<polygon fill="#000000" stroke="#000000" stroke-width=".75" points="208.8173,-88.0001 214.8174,-90.7 211.8173,-88 214.8173,-88 214.8173,-88 214.8173,-88 211.8173,-88 214.8173,-85.3 208.8173,-88.0001 208.8173,-88.0001"/>
</g>
</g>
</svg>
